<?xml version="1.0" encoding="utf-8"?>
<svg id="master-artboard" viewBox="0 0 360 360" version="1.1" xmlns="http://www.w3.org/2000/svg" x="0px" y="0px" style="enable-background:new 0 0 1400 980;" width="360px" height="360px"><rect id="ee-background" x="0" y="0" width="360" height="360" style="fill: white; fill-opacity: 0; pointer-events: none;"/>

<path class="st5" d="M1155,180.8h-12V82.5c0-6.3-2.7-12.6-7.3-16.8c-3.9-3.6-8.8-5.4-13.8-4.9c-8.1,0.7-32.9,5.8-33.1,5.9&#10;&#9;&#9;&#9;&#9;l-2.4-11.7c1-0.2,25.7-5.3,34.5-6.1c8.3-0.7,16.5,2.1,22.9,8c7.1,6.5,11.2,15.9,11.2,25.6V180.8z" style="fill: rgb(211, 211, 211);" transform="matrix(1, 0, 0, 1, -914.6668842827881, -50.071125120253896)"/><path class="st5" d="M1100.3,307c-30.1,0-54.7-24.5-54.7-54.7v-28.2h12v28.2c0,23.5,19.2,42.7,42.7,42.7&#10;&#9;&#9;&#9;&#9;c23.5,0,42.7-19.2,42.7-42.7v-28.2h12v28.2C1155,282.4,1130.5,307,1100.3,307z" style="fill: rgb(211, 211, 211);" transform="matrix(1, 0, 0, 1, -915.5208944740394, 8.85416720186663)"/><path d="M 1106.49995 129.5 A 54.799999 54.799999 0 0 1 1051.699951 184.299999 A 54.799999 54.799999 0 0 1 996.899952 129.5 A 54.799999 54.799999 0 0 1 1051.699951 74.700001 A 54.799999 54.799999 0 0 1 1106.49995 129.5 Z" class="st10" style="fill: rgb(150, 150, 150);" transform="matrix(1, 0, 0, 1, -915.5208944740394, 8.85416720186663)"/><path d="M 1094.49995 129.5 A 42.799999 42.799999 0 0 1 1051.699951 172.299999 A 42.799999 42.799999 0 0 1 1008.899952 129.5 A 42.799999 42.799999 0 0 1 1051.699951 86.700001 A 42.799999 42.799999 0 0 1 1094.49995 129.5 Z" class="st11" style="fill: rgb(196, 194, 196);" transform="matrix(1, 0, 0, 1, -915.5208944740394, 8.85416720186663)"/><path class="st10" d="M1076.7,116.4c-1.7,0-3.4-0.8-4.4-2.3c-4.7-6.7-12.4-10.8-20.5-10.8c-8.2,0-15.8,4-20.5,10.8&#10;&#9;&#9;&#9;&#9;&#9;c-1.7,2.5-5.1,3.1-7.5,1.3c-2.5-1.7-3.1-5.1-1.3-7.5c6.7-9.6,17.7-15.4,29.4-15.4c11.7,0,22.7,5.8,29.4,15.4&#10;&#9;&#9;&#9;&#9;&#9;c1.7,2.5,1.1,5.8-1.3,7.5C1078.8,116.1,1077.7,116.4,1076.7,116.4z" style="fill: rgb(150, 150, 150);" transform="matrix(1, 0, 0, 1, -915.5208944740394, 8.85416720186663)"/><path class="st10" d="M1082.1,147.6c-3,0-5.4-2.4-5.4-5.4v-13.8c0-0.1,0-0.1,0-0.2c0-3,2.4-5.4,5.4-5.4c3,0,5.4,2.4,5.4,5.3&#10;&#9;&#9;&#9;&#9;&#9;c0,0.1,0,0.1,0,0.2v13.8C1087.5,145.2,1085.1,147.6,1082.1,147.6z" style="fill: rgb(150, 150, 150);" transform="matrix(1, 0, 0, 1, -915.5208944740394, 8.85416720186663)"/><path class="st10" d="M1021.2,147.6c-3,0-5.4-2.4-5.4-5.4v-13.8c0-0.1,0-0.1,0-0.2c0-3,2.5-5.3,5.4-5.3c3,0,5.4,2.4,5.4,5.4&#10;&#9;&#9;&#9;&#9;&#9;c0,0.1,0,0.1,0,0.2v13.8C1026.6,145.2,1024.2,147.6,1021.2,147.6z" style="fill: rgb(150, 150, 150);" transform="matrix(1, 0, 0, 1, -915.5208944740394, 8.85416720186663)"/><path class="st12" d="M1051.7,184.3c8.8,0,17.2-2.1,24.6-5.8l-7.3-51.6c0,0-14.5,41.4-20,57.4&#10;&#9;&#9;&#9;&#9;&#9;C1049.9,184.2,1050.8,184.3,1051.7,184.3z" style="fill: rgb(181, 181, 182);" transform="matrix(1, 0, 0, 1, -915.5208944740394, 8.85416720186663)"/><path class="st6" d="M1051.7,111L1051.7,111c-9.6,0-17.4,7.8-17.4,17.4V226c0,9.6,7.8,17.4,17.4,17.4h0&#10;&#9;&#9;&#9;&#9;&#9;&#9;c9.6,0,17.4-7.8,17.4-17.4v-97.7C1069,118.8,1061.3,111,1051.7,111z" style="fill: rgb(232, 230, 230);" transform="matrix(1, 0, 0, 1, -915.5208944740394, 8.85416720186663)"/><path d="M 1045.600024 126.800003 A 3.7 3.7 0 0 1 1041.900024 130.500003 A 3.7 3.7 0 0 1 1038.200024 126.800003 A 3.7 3.7 0 0 1 1041.900024 123.100003 A 3.7 3.7 0 0 1 1045.600024 126.800003 Z" class="st9" style="fill: rgb(255, 255, 255);" transform="matrix(1, 0, 0, 1, -915.5208944740394, 8.85416720186663)"/><path class="st9" d="M1041.9,135.2c-2.1,0-3.7,1.7-3.7,3.7V157c0,2.1,1.7,3.7,3.7,3.7c2.1,0,3.7-1.7,3.7-3.7V139&#10;&#9;&#9;&#9;&#9;&#9;&#9;&#9;C1045.7,136.9,1044,135.2,1041.9,135.2z" style="fill: rgb(255, 255, 255);" transform="matrix(1, 0, 0, 1, -915.5208944740394, 8.85416720186663)"/><path class="st6" d="M1171.7,210.8v-77c0-12.5-10.2-22.7-22.7-22.7l0,0c-12.5,0-22.7,10.2-22.7,22.7v77&#10;&#9;&#9;&#9;&#9;&#9;c0,12.5,10.2,22.7,22.7,22.7l0,0C1161.5,233.5,1171.7,223.4,1171.7,210.8z" style="fill: rgb(232, 230, 230);" transform="matrix(1, 0, 0, 1, -915.5208944740394, 8.85416720186663)"/><path d="M 1137.099976 206.899994 H 1160.899975 V 213.299994 H 1137.099976 V 206.899994 Z" class="st10" style="fill: rgb(150, 150, 150);" transform="matrix(1, 0, 0, 1, -915.5208944740394, 8.85416720186663)"/><path d="M 1137.099976 140 H 1160.899975 V 146.4 H 1137.099976 V 140 Z" class="st10" style="fill: rgb(150, 150, 150);" transform="matrix(1, 0, 0, 1, -915.5208944740394, 8.85416720186663)"/><path d="M 1145.800049 131.300003 H 1152.200049 V 155.100002 H 1145.800049 V 131.300003 Z" class="st10" style="fill: rgb(150, 150, 150);" transform="matrix(1, 0, 0, 1, -915.5208944740394, 8.85416720186663)"/>
</svg>