<svg xmlns="http://www.w3.org/2000/svg" id="master-artboard" width="360" height="360" x="0" y="0" version="1.1" viewBox="0 0 360 360" style="enable-background:new 0 0 1400 980"><rect id="ee-background" width="360" height="360" x="0" y="0" style="fill:#fff;fill-opacity:0;pointer-events:none"/><path d="M1155,180.8h-12V82.5c0-6.3-2.7-12.6-7.3-16.8c-3.9-3.6-8.8-5.4-13.8-4.9c-8.1,0.7-32.9,5.8-33.1,5.9 l-2.4-11.7c1-0.2,25.7-5.3,34.5-6.1c8.3-0.7,16.5,2.1,22.9,8c7.1,6.5,11.2,15.9,11.2,25.6V180.8z" class="st5" transform="matrix(1, 0, 0, 1, -914.6668842827881, -50.071125120253896)" style="fill:#d3d3d3"/><path d="M1100.3,307c-30.1,0-54.7-24.5-54.7-54.7v-28.2h12v28.2c0,23.5,19.2,42.7,42.7,42.7 c23.5,0,42.7-19.2,42.7-42.7v-28.2h12v28.2C1155,282.4,1130.5,307,1100.3,307z" class="st5" transform="matrix(1, 0, 0, 1, -915.5208944740394, 8.85416720186663)" style="fill:#d3d3d3"/><path d="M 1106.49995 129.5 A 54.799999 54.799999 0 0 1 1051.699951 184.299999 A 54.799999 54.799999 0 0 1 996.899952 129.5 A 54.799999 54.799999 0 0 1 1051.699951 74.700001 A 54.799999 54.799999 0 0 1 1106.49995 129.5 Z" class="st10" transform="matrix(1, 0, 0, 1, -915.5208944740394, 8.85416720186663)" style="fill:#969696"/><path d="M 1094.49995 129.5 A 42.799999 42.799999 0 0 1 1051.699951 172.299999 A 42.799999 42.799999 0 0 1 1008.899952 129.5 A 42.799999 42.799999 0 0 1 1051.699951 86.700001 A 42.799999 42.799999 0 0 1 1094.49995 129.5 Z" class="st11" transform="matrix(1, 0, 0, 1, -915.5208944740394, 8.85416720186663)" style="fill:#c4c2c4"/><path d="M1076.7,116.4c-1.7,0-3.4-0.8-4.4-2.3c-4.7-6.7-12.4-10.8-20.5-10.8c-8.2,0-15.8,4-20.5,10.8 c-1.7,2.5-5.1,3.1-7.5,1.3c-2.5-1.7-3.1-5.1-1.3-7.5c6.7-9.6,17.7-15.4,29.4-15.4c11.7,0,22.7,5.8,29.4,15.4 c1.7,2.5,1.1,5.8-1.3,7.5C1078.8,116.1,1077.7,116.4,1076.7,116.4z" class="st10" transform="matrix(1, 0, 0, 1, -915.5208944740394, 8.85416720186663)" style="fill:#969696"/><path d="M1082.1,147.6c-3,0-5.4-2.4-5.4-5.4v-13.8c0-0.1,0-0.1,0-0.2c0-3,2.4-5.4,5.4-5.4c3,0,5.4,2.4,5.4,5.3 c0,0.1,0,0.1,0,0.2v13.8C1087.5,145.2,1085.1,147.6,1082.1,147.6z" class="st10" transform="matrix(1, 0, 0, 1, -915.5208944740394, 8.85416720186663)" style="fill:#969696"/><path d="M1021.2,147.6c-3,0-5.4-2.4-5.4-5.4v-13.8c0-0.1,0-0.1,0-0.2c0-3,2.5-5.3,5.4-5.3c3,0,5.4,2.4,5.4,5.4 c0,0.1,0,0.1,0,0.2v13.8C1026.6,145.2,1024.2,147.6,1021.2,147.6z" class="st10" transform="matrix(1, 0, 0, 1, -915.5208944740394, 8.85416720186663)" style="fill:#969696"/><path d="M1051.7,184.3c8.8,0,17.2-2.1,24.6-5.8l-7.3-51.6c0,0-14.5,41.4-20,57.4 C1049.9,184.2,1050.8,184.3,1051.7,184.3z" class="st12" transform="matrix(1, 0, 0, 1, -915.5208944740394, 8.85416720186663)" style="fill:#b5b5b6"/><path d="M1051.7,111L1051.7,111c-9.6,0-17.4,7.8-17.4,17.4V226c0,9.6,7.8,17.4,17.4,17.4h0 c9.6,0,17.4-7.8,17.4-17.4v-97.7C1069,118.8,1061.3,111,1051.7,111z" class="st6" transform="matrix(1, 0, 0, 1, -915.5208944740394, 8.85416720186663)" style="fill:#e8e6e6"/><path d="M 1045.600024 126.800003 A 3.7 3.7 0 0 1 1041.900024 130.500003 A 3.7 3.7 0 0 1 1038.200024 126.800003 A 3.7 3.7 0 0 1 1041.900024 123.100003 A 3.7 3.7 0 0 1 1045.600024 126.800003 Z" class="st9" transform="matrix(1, 0, 0, 1, -915.5208944740394, 8.85416720186663)" style="fill:#fff"/><path d="M1041.9,135.2c-2.1,0-3.7,1.7-3.7,3.7V157c0,2.1,1.7,3.7,3.7,3.7c2.1,0,3.7-1.7,3.7-3.7V139 C1045.7,136.9,1044,135.2,1041.9,135.2z" class="st9" transform="matrix(1, 0, 0, 1, -915.5208944740394, 8.85416720186663)" style="fill:#fff"/><path d="M1171.7,210.8v-77c0-12.5-10.2-22.7-22.7-22.7l0,0c-12.5,0-22.7,10.2-22.7,22.7v77 c0,12.5,10.2,22.7,22.7,22.7l0,0C1161.5,233.5,1171.7,223.4,1171.7,210.8z" class="st6" transform="matrix(1, 0, 0, 1, -915.5208944740394, 8.85416720186663)" style="fill:#e8e6e6"/><path d="M 1137.099976 206.899994 H 1160.899975 V 213.299994 H 1137.099976 V 206.899994 Z" class="st10" transform="matrix(1, 0, 0, 1, -915.5208944740394, 8.85416720186663)" style="fill:#969696"/><path d="M 1137.099976 140 H 1160.899975 V 146.4 H 1137.099976 V 140 Z" class="st10" transform="matrix(1, 0, 0, 1, -915.5208944740394, 8.85416720186663)" style="fill:#969696"/><path d="M 1145.800049 131.300003 H 1152.200049 V 155.100002 H 1145.800049 V 131.300003 Z" class="st10" transform="matrix(1, 0, 0, 1, -915.5208944740394, 8.85416720186663)" style="fill:#969696"/></svg>